<svg xmlns="http://www.w3.org/2000/svg" version="1.0" viewBox="0 0 366 433"><path fill-opacity=".1" d="m15.4 360.2-1.9 2.3 2.3-1.9c1.2-1.1 2.2-2.1 2.2-2.3 0-.8-.8-.2-2.6 1.9z"/><path fill-opacity=".2" d="M45.8 3.7c.7.3 1.6.2 1.9-.1.4-.3-.2-.6-1.3-.5-1.1 0-1.4.3-.6.6zM3.2 46.5c0 1.6.2 2.2.5 1.2.2-.9.2-2.3 0-3-.3-.6-.5.1-.5 1.8z"/><path fill-opacity=".4" d="M45.8 432.7c.7.3 1.6.2 1.9-.1.4-.3-.2-.6-1.3-.5-1.1 0-1.4.3-.6.6z"/><path fill-opacity=".6" d="M363.2 215c0 1.9.2 2.7.5 1.7.2-.9.2-2.5 0-3.5-.3-.9-.5-.1-.5 1.8z"/><path fill-opacity=".7" d="M14 74.4c0 .2.8 1 1.8 1.7 1.5 1.3 1.6 1.2.3-.4S14 73.6 14 74.4zM4.2 390c0 1.9.2 2.7.5 1.7.2-.9.2-2.5 0-3.5-.3-.9-.5-.1-.5 1.8z"/><path fill-opacity=".8" d="M15.9 16.7c-1.3 1.6-1.2 1.7.4.4.9-.7 1.7-1.5 1.7-1.7 0-.8-.8-.3-2.1 1.3zm-1 345c-1.3 1.6-1.2 1.7.4.4.9-.7 1.7-1.5 1.7-1.7 0-.8-.8-.3-2.1 1.3z"/><path fill-opacity=".9" d="M350 185.5c1.9 1.9 3.6 3.5 3.9 3.5.3 0-1-1.6-2.9-3.5s-3.6-3.5-3.9-3.5c-.3 0 1 1.6 2.9 3.5zm-.1 60.2c-1.3 1.6-1.2 1.7.4.4 1.6-1.3 2.1-2.1 1.3-2.1-.2 0-1 .8-1.7 1.7z"/><path d="M38 5.4c-8.3 1.8-14.9 5.4-21.1 11.5C.1 33.7.2 59.3 17 76c4.4 4.3 28.6 19.6 114.8 72.4C191.9 185.1 241 215.6 241 216c0 .4-49.7 32.4-110.4 71C51 337.6 19 358.4 16 361.6c-12.2 13.2-14.4 33.8-5.4 49.1 10.2 17.4 33.7 26 50.7 18.5 8.3-3.7 284.1-179.3 289-184.1 13.5-13 16.5-34.6 7.1-50.6-1.2-2.2-4.5-6.1-7.1-8.7-3.3-3.2-48.2-31.4-143.3-89.9C130.8 49 66.5 9.7 64 8.4c-4.4-2.2-14.2-4.5-18.4-4.3-1.2 0-4.6.6-7.6 1.3z"/><path fill-opacity=".3" d="M350.5 185c1 1.1 2 2 2.3 2 .3 0-.3-.9-1.3-2s-2-2-2.3-2c-.3 0 .3.9 1.3 2z"/></svg>