<svg xmlns="http://www.w3.org/2000/svg" version="1.0" viewBox="0 0 550 521"><path d="M251 212.7v207.8L144.7 314.2 38.5 208l-17.3 17.3L4 242.5l136 136 136 136 136-136 136-136-17.2-17.2-17.3-17.3-106 106c-58.3 58.3-106.3 106-106.8 106-.4 0-.7-93.4-.7-207.5V5h-49z"/><path fill-opacity=".9" d="M300.5 212.5c0 114.4.1 161.1.2 103.7.2-57.4.2-151 0-208-.1-57-.2-10.1-.2 104.3"/><g fill-opacity=".7" stroke-opacity=".7" stroke-width="0"><path d="m20.5 225.2-17 17.3 17.3-17c9.4-9.3 17.2-17.1 17.2-17.2 0-.8-1.7.9-17.5 16.9m124 88.8c58.3 58.3 106.2 106 106.5 106s-47.2-47.7-105.5-106S39.3 208 39 208s47.2 47.7 105.5 106m386-89c9.3 9.3 17.2 17 17.5 17s-7.2-7.7-16.5-17c-9.3-9.4-17.2-17-17.5-17s7.2 7.6 16.5 17"/><path d="M139.8 379 276 515.5 412.3 379l136.2-136.5-136.2 136-136.3 136-136.2-136-136.3-136z"/></g><path fill-opacity=".8" d="m406.5 314.2-106 106.3 106.3-106C465.2 256.2 513 208.4 513 208.3q0-.3-.3-.3c-.1 0-47.9 47.8-106.2 106.2"/></svg>