<svg xmlns="http://www.w3.org/2000/svg" version="1.0" viewBox="0 0 489 483"><path fill-opacity=".1" d="M327.5 84c-8.2 8.2-14.7 15-14.5 15 .3 0 7.3-6.8 15.5-15 8.2-8.3 14.7-15 14.5-15-.3 0-7.3 6.7-15.5 15zm26 117.2-14 14.3 14.3-14c13.2-13 14.7-14.5 13.9-14.5-.1 0-6.5 6.4-14.2 14.2zM83.5 328c-8.2 8.2-14.7 15-14.5 15 .3 0 7.3-6.8 15.5-15 8.2-8.3 14.7-15 14.5-15-.3 0-7.3 6.7-15.5 15zm117 26.2-14 14.3 14.3-14c13.2-13 14.7-14.5 13.9-14.5-.1 0-6.5 6.4-14.2 14.2z"/><path fill-opacity=".2" d="m300 111.7-12.5 12.8 12.8-12.5c7-6.9 12.7-12.6 12.7-12.7 0-.8-1.4.6-13 12.4zm79.5 63.3c-6.6 6.6-11.7 12-11.5 12 .3 0 5.9-5.4 12.5-12s11.7-12 11.5-12c-.3 0-5.9 5.4-12.5 12zm-269 126c-6.6 6.6-11.7 12-11.5 12 .3 0 5.9-5.4 12.5-12s11.7-12 11.5-12c-.3 0-5.9 5.4-12.5 12zm63.5 79.7-12.5 12.8 12.8-12.5c7-6.9 12.7-12.6 12.7-12.7 0-.8-1.4.6-13 12.4z"/><path fill-opacity=".3" d="m278 133.7-9.5 9.8 9.8-9.5c5.3-5.2 9.7-9.6 9.7-9.7 0-.8-1.2.4-10 9.4zm123.5 19.5-10 10.3 10.3-10c9.5-9.3 10.7-10.5 9.9-10.5-.1 0-4.7 4.6-10.2 10.2zM133 278.7l-10.5 10.8 10.8-10.5c9.9-9.7 11.2-11 10.4-11-.1 0-5 4.8-10.7 10.7zm26.9 116c-1.3 1.6-1.2 1.7.4.4 1.6-1.3 2.1-2.1 1.3-2.1-.2 0-1 .8-1.7 1.7zm-9.4 9.5-7 7.3 7.3-7c6.7-6.4 7.7-7.5 6.9-7.5-.1 0-3.4 3.3-7.2 7.2z"/><path fill-opacity=".4" d="M57.8 5.7c.7.3 1.6.2 1.9-.1.4-.3-.2-.6-1.3-.5-1.1 0-1.4.3-.6.6zm367 0c.7.3 1.6.2 1.9-.1.4-.3-.2-.6-1.3-.5-1.1 0-1.4.3-.6.6zm-2.3 126.5-11 11.3 11.3-11c10.4-10.2 11.7-11.5 10.9-11.5-.1 0-5.2 5.1-11.2 11.2zm-161 18-7 7.3 7.3-7c6.7-6.4 7.7-7.5 6.9-7.5-.1 0-3.4 3.3-7.2 7.2zm-112 112-6 6.3 6.3-6c5.8-5.5 6.7-6.5 5.9-6.5-.1 0-2.9 2.8-6.2 6.2zM132 422.7l-11.5 11.8 11.8-11.5c10.9-10.7 12.2-12 11.4-12-.1 0-5.4 5.3-11.7 11.7z"/><path fill-opacity=".5" d="M54.8 5.7c.7.3 1.6.2 1.9-.1.4-.3-.2-.6-1.3-.5-1.1 0-1.4.3-.6.6zm373 0c.7.3 1.6.2 1.9-.1.4-.3-.2-.6-1.3-.5-1.1 0-1.4.3-.6.6zM5.1 55.6c0 1.1.3 1.4.6.6.3-.7.2-1.6-.1-1.9-.3-.4-.6.2-.5 1.3zm473 0c0 1.1.3 1.4.6.6.3-.7.2-1.6-.1-1.9-.3-.4-.6.2-.5 1.3zM440 114.7l-6.5 6.8 6.8-6.5c3.7-3.5 6.7-6.6 6.7-6.7 0-.8-1 .2-7 6.4zm-192 49-6.5 6.8 6.8-6.5c6.2-6 7.2-7 6.4-7-.1 0-3.2 3-6.7 6.7zm-85.5 85.5-7 7.3 7.3-7c6.7-6.4 7.7-7.5 6.9-7.5-.1 0-3.4 3.3-7.2 7.2zM5.1 428.6c0 1.1.3 1.4.6.6.3-.7.2-1.6-.1-1.9-.3-.4-.6.2-.5 1.3zm473 0c0 1.1.3 1.4.6.6.3-.7.2-1.6-.1-1.9-.3-.4-.6.2-.5 1.3zm-363.6 11.6-6 6.3 6.3-6c5.8-5.5 6.7-6.5 5.9-6.5-.1 0-2.9 2.8-6.2 6.2zm-59.7 38.5c.7.3 1.6.2 1.9-.1.4-.3-.2-.6-1.3-.5-1.1 0-1.4.3-.6.6zm373 0c.7.3 1.6.2 1.9-.1.4-.3-.2-.6-1.3-.5-1.1 0-1.4.3-.6.6z"/><path fill-opacity=".7" d="m369 43.7-11.5 11.8L369.3 44c6.4-6.3 11.7-11.6 11.7-11.7 0-.8-1.3.5-12 11.4zm-51.5 192.5-5 5.3 5.3-5c2.8-2.7 5.2-5.1 5.2-5.2 0-.8-.9.1-5.5 4.9zm-82 82-5 5.3 5.3-5c2.8-2.7 5.2-5.1 5.2-5.2 0-.8-.9.1-5.5 4.9zM43.5 369c-6.6 6.6-11.7 12-11.5 12 .3 0 5.9-5.4 12.5-12s11.7-12 11.5-12c-.3 0-5.9 5.4-12.5 12z"/><path fill-opacity=".8" d="m342.5 70.2-13 13.3 13.3-13c12.3-12 13.7-13.5 12.9-13.5-.1 0-6.1 6-13.2 13.2zM339 214.7l-16.5 16.8 16.8-16.5c9.2-9.1 16.7-16.6 16.7-16.7 0-.8-1.7.9-17 16.4zm-125 125-16.5 16.8 16.8-16.5c9.2-9.1 16.7-16.6 16.7-16.7 0-.8-1.7.9-17 16.4zM70.5 342c-8.2 8.2-14.7 15-14.5 15 .3 0 7.3-6.8 15.5-15 8.2-8.3 14.7-15 14.5-15-.3 0-7.3 6.7-15.5 15z"/><path fill-opacity=".9" d="m296 116.7-30.5 30.8 30.8-30.5c16.9-16.8 30.7-30.6 30.7-30.7 0-.8-2.7 1.9-31 30.4zm93 48-33.5 33.8 33.8-33.5c18.5-18.4 33.7-33.6 33.7-33.7 0-.7-2.9 2.1-34 33.4zm-273 132-30.5 30.8 30.8-30.5c28.5-28.3 31.2-31 30.4-31-.1 0-13.9 13.8-30.7 30.7zm48.5 92.5-33 33.3 33.3-33c18.2-18.1 33.2-33.1 33.2-33.2 0-.7-2.8 2-33.5 32.9z"/><path d="M43.6 7.5c-8.3 2.1-17.3 7.2-23.1 13-11.9 11.9-17.1 30.9-13 47 3.7 14 2 12.1 85.8 96.1l77.9 78.1-77.9 78.4c-83.6 84.1-82.2 82.6-85.8 96.4-4.1 16.1 1.1 35.1 13 47 11.9 11.9 30.9 17.1 47 13 14.1-3.7 12-1.8 95.9-86.3l77.9-78.3 77.6 77.4c42.7 42.6 79.6 78.8 82.1 80.4 15 10 34.9 10.7 51.4 2 24.8-13 33.1-46.9 17.3-70.7-1.6-2.5-37.8-39.4-80.4-82.1l-77.5-77.6 77-76.4c42.3-42 78.5-78.7 80.4-81.4 16.5-23.5 8.3-58-16.8-71.2-16.5-8.8-36.6-8-51.4 2-2.5 1.7-39.3 37.7-81.9 80l-77.4 76.9-77.1-77C122.2 51.9 85.5 15.9 83 14.3c-10.8-7.2-26.8-10-39.4-6.8z"/><path fill-opacity=".6" d="M165 94.5c41.5 41.5 75.7 75.5 76 75.5.3 0-33.5-34-75-75.5S90.3 19 90 19c-.3 0 33.5 34 75 75.5zm222-68.8-6.5 6.8 6.8-6.5c3.7-3.5 6.7-6.6 6.7-6.7 0-.8-1 .2-7 6.4zM94 165.5c41.5 41.5 75.7 75.5 76 75.5.3 0-33.5-34-75-75.5S19.3 90 19 90c-.3 0 33.5 34 75 75.5zm361.5-66.3-9 9.3 9.3-9c8.5-8.3 9.7-9.5 8.9-9.5-.1 0-4.3 4.2-9.2 9.2zm-67 218.8c41.8 41.8 76.2 76 76.5 76 .3 0-33.7-34.2-75.5-76s-76.2-76-76.5-76c-.3 0 33.7 34.2 75.5 76zm-71 71c41.8 41.8 76.2 76 76.5 76 .3 0-33.7-34.2-75.5-76s-76.2-76-76.5-76c-.3 0 33.7 34.2 75.5 76zM25 387.7l-6.5 6.8 6.8-6.5c3.7-3.5 6.7-6.6 6.7-6.7 0-.8-1 .2-7 6.4zm73 69-8.5 8.8 8.8-8.5c4.8-4.6 8.7-8.6 8.7-8.7 0-.8-1.1.3-9 8.4z"/></svg>