<svg xmlns="http://www.w3.org/2000/svg" version="1.0" viewBox="0 0 479 362"><path fill-opacity=".1" d="M11 63.4c0 .2.8 1 1.8 1.7 1.5 1.3 1.6 1.2.3-.4S11 62.6 11 63.4zm0 142c0 .2.8 1 1.8 1.7 1.5 1.3 1.6 1.2.3-.4s-2.1-2.1-2.1-1.3z"/><path fill-opacity=".7" d="M2.2 39c0 1.4.2 1.9.5 1.2.2-.6.2-1.8 0-2.5-.3-.6-.5-.1-.5 1.3zm473 0c0 1.4.2 1.9.5 1.2.2-.6.2-1.8 0-2.5-.3-.6-.5-.1-.5 1.3zM137.7 74.7c55.7.2 146.9.2 202.5 0 55.7-.1 10.2-.2-101.2-.2s-156.9.1-101.3.2zM2.2 181c0 1.4.2 1.9.5 1.2.2-.6.2-1.8 0-2.5-.3-.6-.5-.1-.5 1.3zm473 0c0 1.4.2 1.9.5 1.2.2-.6.2-1.8 0-2.5-.3-.6-.5-.1-.5 1.3zm-337.4 35.7c55.8.2 146.7.2 202 0 55.4-.1 9.8-.2-101.3-.2s-156.4.1-100.7.2zM2.2 323c0 1.4.2 1.9.5 1.2.2-.6.2-1.8 0-2.5-.3-.6-.5-.1-.5 1.3zm473 0c0 1.4.2 1.9.5 1.2.2-.6.2-1.8 0-2.5-.3-.6-.5-.1-.5 1.3z"/><path fill-opacity=".8" d="M137.3 4.7c56 .2 147.4.2 203 0 55.7-.1 9.9-.2-101.8-.2s-157.2.1-101.2.2zM12.5 64c1 1.1 2 2 2.3 2 .3 0-.3-.9-1.3-2s-2-2-2.3-2c-.3 0 .3.9 1.3 2zm124.7 82.7c56 .2 147.6.2 203.5 0 56-.1 10.2-.2-101.7-.2s-157.7.1-101.8.2zM12.5 206c1 1.1 2 2 2.3 2 .3 0-.3-.9-1.3-2s-2-2-2.3-2c-.3 0 .3.9 1.3 2zm124.7 82.7c56 .2 147.6.2 203.5 0 56-.1 10.2-.2-101.7-.2s-157.7.1-101.8.2zm.1 69c56 .2 147.4.2 203 0 55.7-.1 9.9-.2-101.8-.2s-157.2.1-101.2.2z"/><path fill-opacity=".9" d="m12.4 15.2-2.9 3.3 3.3-2.9c3-2.8 3.7-3.6 2.9-3.6-.2 0-1.6 1.5-3.3 3.2zm452.1-.2c1 1.1 2 2 2.3 2 .3 0-.3-.9-1.3-2s-2-2-2.3-2c-.3 0 .3.9 1.3 2zm1.5 143.4c0 .2.8 1 1.8 1.7 1.5 1.3 1.6 1.2.3-.4s-2.1-2.1-2.1-1.3zm0 142c0 .2.8 1 1.8 1.7 1.5 1.3 1.6 1.2.3-.4s-2.1-2.1-2.1-1.3z"/><path d="M25 7.2c-7.8 3-16.9 12.3-19.9 20.3-6.1 16 1.7 35 17.6 43.1l5.8 2.9h421l5.3-2.8c7.5-4 12.4-8.7 16.2-15.9 4.5-8.4 5.3-18.5 2-27-2.8-7.6-10.4-15.9-17.8-19.5l-5.7-2.8L240 5.3 30.5 5.1 25 7.2zm3 140.7c-9 2.8-17.2 9.6-21.7 18.3-2.5 4.7-2.8 6.4-2.8 14.8 0 8.9.2 9.9 3.4 15.8 3.8 7.1 9.9 12.9 16.9 16.4l4.7 2.3h421l5.3-2.8c7.5-3.9 12.4-8.7 16.3-15.9 3.2-5.9 3.4-6.9 3.4-15.8 0-8.3-.3-10.1-2.7-14.5-3.6-6.9-10.1-13.3-16.8-16.4l-5.5-2.6-209.5-.2c-115.2-.1-210.6.2-212 .6zm0 142c-9 2.8-17.2 9.6-21.7 18.3-2.5 4.7-2.8 6.3-2.8 14.8s.3 10.1 2.8 14.8c3.5 6.7 9.2 12.4 15.9 15.9l5.3 2.8h422l5.5-2.6c6.7-3.1 13.2-9.5 16.8-16.4 2.4-4.4 2.7-6.1 2.7-14.5s-.3-10.1-2.7-14.5c-3.6-6.9-10.1-13.3-16.8-16.4l-5.5-2.6-209.5-.2c-115.2-.1-210.6.2-212 .6z"/></svg>